<svg xmlns="http://www.w3.org/2000/svg" version="1.1"
     width="512" height="512" x="0" y="0" viewBox="0 0 512 512" style="enable-background:new 0 0 512 512" xml:space="preserve">
    <g>
        <path
            d="M511.999 256.002C511.999 397.386 397.385 512 256 512c-9.488 0-18.85-.512-28.055-1.526-52.328-5.695-99.913-27.167-137.916-59.559C34.932 403.958.001 334.055.001 256.002c0-34.931 6.99-68.221 19.665-98.565 29.445-70.53 89.547-125.063 163.651-146.964C206.357 3.66 230.745.003 256 .003c2.633 0 5.256.042 7.868.125 51.168 1.536 98.554 18.098 137.916 45.422 66.601 46.215 110.215 123.245 110.215 210.452z"
            fill="#eee"></path>
        <path
            d="m471.896 313.544-114.75 121.124c-13.207 13.939-35.422 13.939-48.64 0l-114.74-121.124c-11.452-12.089-2.884-32.016 13.761-32.016h56.341V.128c51.168 1.536 98.554 18.098 137.915 45.422v235.979h56.341c16.656-.001 25.224 19.925 13.772 32.015z"
            fill="#0d3b66"></path>
        <path
            d="M284.286 163.602h-56.341v346.873c-52.328-5.695-99.913-27.167-137.916-59.559V163.602h-56.34c-5.841 0-10.689-2.456-14.022-6.165-6.175-6.855-7.168-18.004.261-25.851l114.74-121.124c13.218-13.949 35.432-13.949 48.64 0l.01.01 114.74 121.114c11.451 12.089 2.883 32.016-13.772 32.016z"
            fill="#058c42"></path>
    </g>
</svg>
